<?xml version="1.0" encoding="utf-8"?>
<!-- Generator: Adobe Illustrator 16.0.0, SVG Export Plug-In . SVG Version: 6.00 Build 0)  -->
<!DOCTYPE svg PUBLIC "-//W3C//DTD SVG 1.1//EN" "http://www.w3.org/Graphics/SVG/1.1/DTD/svg11.dtd">
<svg version="1.1" id="Layer_1" xmlns="http://www.w3.org/2000/svg" xmlns:xlink="http://www.w3.org/1999/xlink" x="0px" y="0px"
	 width="48px" height="48px" viewBox="0 0 48 48" enable-background="new 0 0 48 48" xml:space="preserve">
<g>
	<path d="M48,9.372c-1.371,1.829-2.971,3.657-4.8,5.028v1.143c0,3.2-0.687,6.4-1.829,9.828
		c-1.143,3.199-2.971,6.172-5.485,8.914c-2.286,2.744-5.257,4.801-8.686,6.4c-3.657,1.6-7.543,2.514-12.114,2.514
		c-2.743,0-5.486-0.457-8-1.143c-2.515-0.686-4.8-1.828-7.086-3.199c0.457,0,0.686,0,1.143,0c0.457,0,0.686,0,1.143,0
		c4.8,0,8.686-1.371,12.114-4.115c-2.286,0-4.114-0.686-5.714-2.057c-1.6-1.371-2.743-2.742-3.428-4.801
		c0.686,0.229,1.143,0.229,1.829,0.229c0.457,0,0.914,0,1.371,0s0.915-0.229,1.372-0.229c-2.286-0.457-4.114-1.6-5.714-3.428
		s-2.286-3.886-2.286-6.171l0,0C2.514,18.514,3.2,18.972,3.886,19.2s1.6,0.229,2.514,0.229c-1.372-0.686-2.514-1.829-3.2-3.2
		c-0.686-1.371-1.143-2.971-1.143-4.571s0.457-3.429,1.372-5.029c2.514,2.972,5.485,5.486,8.914,7.086
		c3.429,1.829,7.314,2.743,11.429,2.971c-0.229-0.686-0.229-1.371-0.229-2.057c0-1.371,0.229-2.514,0.686-3.885
		c0.457-1.143,1.143-2.286,2.057-3.2c0.915-0.915,1.829-1.6,3.201-2.057C30.629,5.029,32,4.8,33.371,4.8s2.743,0.229,4.115,0.915
		C38.629,6.171,39.771,7.086,40.686,8c1.143-0.229,2.285-0.457,3.2-0.914c0.914-0.458,1.829-0.915,2.743-1.6
		c-0.914,2.286-2.286,4.114-4.344,5.257c1.144,0,2.058-0.229,2.973-0.458C46.172,10.057,47.086,9.829,48,9.372z"/>
</g>
</svg>
